<mxfile host="app.diagrams.net" modified="2024-03-20T20:36:33.198Z" agent="Mozilla/5.0 (Windows NT 10.0; Win64; x64; rv:123.0) Gecko/20100101 Firefox/123.0" etag="Ucjx4b-Z3jLk8JLXXw7Y" version="24.0.7" type="device">
  <diagram name="Page-1" id="PL5kagcS-QbFByonB-EG">
    <mxGraphModel dx="989" dy="558" grid="1" gridSize="10" guides="1" tooltips="1" connect="1" arrows="1" fold="1" page="1" pageScale="1" pageWidth="850" pageHeight="1100" math="0" shadow="0">
      <root>
        <mxCell id="0" />
        <mxCell id="1" parent="0" />
        <mxCell id="EeDvjPlZpaN--JR_k7qJ-1" value="Employee" style="shape=umlActor;verticalLabelPosition=bottom;verticalAlign=top;html=1;outlineConnect=0;" vertex="1" parent="1">
          <mxGeometry x="90" y="40" width="30" height="60" as="geometry" />
        </mxCell>
        <mxCell id="EeDvjPlZpaN--JR_k7qJ-2" value="" style="endArrow=classic;html=1;rounded=0;" edge="1" parent="1">
          <mxGeometry width="50" height="50" relative="1" as="geometry">
            <mxPoint x="120.5" y="240" as="sourcePoint" />
            <mxPoint x="120" y="130" as="targetPoint" />
          </mxGeometry>
        </mxCell>
        <mxCell id="EeDvjPlZpaN--JR_k7qJ-4" value="Sales Agent" style="shape=umlActor;verticalLabelPosition=bottom;verticalAlign=top;html=1;outlineConnect=0;" vertex="1" parent="1">
          <mxGeometry x="105" y="250" width="30" height="60" as="geometry" />
        </mxCell>
        <mxCell id="EeDvjPlZpaN--JR_k7qJ-7" value="" style="endArrow=classic;html=1;rounded=0;" edge="1" parent="1">
          <mxGeometry width="50" height="50" relative="1" as="geometry">
            <mxPoint x="80" y="590" as="sourcePoint" />
            <mxPoint x="80" y="130" as="targetPoint" />
          </mxGeometry>
        </mxCell>
        <mxCell id="EeDvjPlZpaN--JR_k7qJ-8" value="Admin" style="shape=umlActor;verticalLabelPosition=bottom;verticalAlign=top;html=1;outlineConnect=0;" vertex="1" parent="1">
          <mxGeometry x="65" y="605" width="30" height="60" as="geometry" />
        </mxCell>
        <mxCell id="EeDvjPlZpaN--JR_k7qJ-10" value="" style="rounded=0;whiteSpace=wrap;html=1;" vertex="1" parent="1">
          <mxGeometry x="200" y="40" width="550" height="995" as="geometry" />
        </mxCell>
        <mxCell id="EeDvjPlZpaN--JR_k7qJ-11" value="Logistics System" style="text;html=1;align=center;verticalAlign=middle;whiteSpace=wrap;rounded=0;" vertex="1" parent="1">
          <mxGeometry x="422.5" y="10" width="105" height="30" as="geometry" />
        </mxCell>
        <mxCell id="EeDvjPlZpaN--JR_k7qJ-15" value="Login" style="ellipse;whiteSpace=wrap;html=1;fillColor=#dae8fc;strokeColor=#6c8ebf;" vertex="1" parent="1">
          <mxGeometry x="650" y="45" width="90" height="50" as="geometry" />
        </mxCell>
        <mxCell id="EeDvjPlZpaN--JR_k7qJ-17" value="" style="endArrow=none;html=1;rounded=0;exitX=0.5;exitY=0.5;exitDx=0;exitDy=0;exitPerimeter=0;entryX=0;entryY=0.5;entryDx=0;entryDy=0;" edge="1" parent="1" source="EeDvjPlZpaN--JR_k7qJ-1" target="EeDvjPlZpaN--JR_k7qJ-15">
          <mxGeometry width="50" height="50" relative="1" as="geometry">
            <mxPoint x="440" y="200" as="sourcePoint" />
            <mxPoint x="490" y="150" as="targetPoint" />
          </mxGeometry>
        </mxCell>
        <mxCell id="EeDvjPlZpaN--JR_k7qJ-19" value="Manage Products" style="ellipse;whiteSpace=wrap;html=1;fillColor=#ffe6cc;strokeColor=#d79b00;" vertex="1" parent="1">
          <mxGeometry x="390" y="610" width="90" height="50" as="geometry" />
        </mxCell>
        <mxCell id="EeDvjPlZpaN--JR_k7qJ-20" value="" style="endArrow=none;html=1;rounded=0;entryX=0.5;entryY=0.5;entryDx=0;entryDy=0;entryPerimeter=0;exitX=0;exitY=0.5;exitDx=0;exitDy=0;" edge="1" parent="1" source="EeDvjPlZpaN--JR_k7qJ-19" target="EeDvjPlZpaN--JR_k7qJ-8">
          <mxGeometry width="50" height="50" relative="1" as="geometry">
            <mxPoint x="440" y="610" as="sourcePoint" />
            <mxPoint x="490" y="560" as="targetPoint" />
          </mxGeometry>
        </mxCell>
        <mxCell id="EeDvjPlZpaN--JR_k7qJ-21" value="" style="endArrow=block;dashed=1;endFill=0;endSize=12;html=1;rounded=0;exitX=1;exitY=0.5;exitDx=0;exitDy=0;entryX=0.5;entryY=1;entryDx=0;entryDy=0;" edge="1" parent="1" source="EeDvjPlZpaN--JR_k7qJ-19" target="EeDvjPlZpaN--JR_k7qJ-15">
          <mxGeometry width="160" relative="1" as="geometry">
            <mxPoint x="390" y="640" as="sourcePoint" />
            <mxPoint x="550" y="640" as="targetPoint" />
            <Array as="points">
              <mxPoint x="700" y="635" />
            </Array>
          </mxGeometry>
        </mxCell>
        <mxCell id="EeDvjPlZpaN--JR_k7qJ-22" value="&amp;lt;&amp;lt;include&amp;gt;&amp;gt;" style="text;html=1;align=center;verticalAlign=middle;whiteSpace=wrap;rounded=0;" vertex="1" parent="1">
          <mxGeometry x="630" y="605" width="70" height="30" as="geometry" />
        </mxCell>
        <mxCell id="EeDvjPlZpaN--JR_k7qJ-24" value="Add Product" style="ellipse;whiteSpace=wrap;html=1;fillColor=#dae8fc;strokeColor=#6c8ebf;" vertex="1" parent="1">
          <mxGeometry x="300" y="730" width="90" height="50" as="geometry" />
        </mxCell>
        <mxCell id="EeDvjPlZpaN--JR_k7qJ-25" value="Extends" style="endArrow=block;endSize=16;endFill=0;html=1;rounded=0;exitX=0.5;exitY=0;exitDx=0;exitDy=0;entryX=0;entryY=1;entryDx=0;entryDy=0;" edge="1" parent="1" source="EeDvjPlZpaN--JR_k7qJ-24" target="EeDvjPlZpaN--JR_k7qJ-19">
          <mxGeometry width="160" relative="1" as="geometry">
            <mxPoint x="270" y="770" as="sourcePoint" />
            <mxPoint x="430" y="770" as="targetPoint" />
          </mxGeometry>
        </mxCell>
        <mxCell id="EeDvjPlZpaN--JR_k7qJ-27" value="Delete Product" style="ellipse;whiteSpace=wrap;html=1;fillColor=#dae8fc;strokeColor=#6c8ebf;" vertex="1" parent="1">
          <mxGeometry x="400" y="730" width="90" height="50" as="geometry" />
        </mxCell>
        <mxCell id="EeDvjPlZpaN--JR_k7qJ-28" value="Extends" style="endArrow=block;endSize=16;endFill=0;html=1;rounded=0;exitX=0.5;exitY=0;exitDx=0;exitDy=0;entryX=0.5;entryY=1;entryDx=0;entryDy=0;" edge="1" parent="1" source="EeDvjPlZpaN--JR_k7qJ-27" target="EeDvjPlZpaN--JR_k7qJ-19">
          <mxGeometry width="160" relative="1" as="geometry">
            <mxPoint x="380" y="770" as="sourcePoint" />
            <mxPoint x="513" y="653" as="targetPoint" />
          </mxGeometry>
        </mxCell>
        <mxCell id="EeDvjPlZpaN--JR_k7qJ-29" value="Extends" style="endArrow=block;endSize=16;endFill=0;html=1;rounded=0;exitX=0.5;exitY=0;exitDx=0;exitDy=0;entryX=1;entryY=1;entryDx=0;entryDy=0;" edge="1" parent="1" source="EeDvjPlZpaN--JR_k7qJ-30" target="EeDvjPlZpaN--JR_k7qJ-19">
          <mxGeometry width="160" relative="1" as="geometry">
            <mxPoint x="480" y="720" as="sourcePoint" />
            <mxPoint x="470" y="650" as="targetPoint" />
          </mxGeometry>
        </mxCell>
        <mxCell id="EeDvjPlZpaN--JR_k7qJ-30" value="Update Product" style="ellipse;whiteSpace=wrap;html=1;fillColor=#dae8fc;strokeColor=#6c8ebf;" vertex="1" parent="1">
          <mxGeometry x="500" y="730" width="90" height="50" as="geometry" />
        </mxCell>
        <mxCell id="EeDvjPlZpaN--JR_k7qJ-33" value="Place Order" style="ellipse;whiteSpace=wrap;html=1;fillColor=#dae8fc;strokeColor=#6c8ebf;" vertex="1" parent="1">
          <mxGeometry x="390" y="360" width="90" height="50" as="geometry" />
        </mxCell>
        <mxCell id="EeDvjPlZpaN--JR_k7qJ-34" value="View Products" style="ellipse;whiteSpace=wrap;html=1;fillColor=#ffe6cc;strokeColor=#d79b00;" vertex="1" parent="1">
          <mxGeometry x="390" y="255" width="90" height="50" as="geometry" />
        </mxCell>
        <mxCell id="EeDvjPlZpaN--JR_k7qJ-37" value="&amp;lt;&amp;lt;extend&amp;gt;&amp;gt;" style="html=1;verticalAlign=bottom;endArrow=open;dashed=1;endSize=8;curved=0;rounded=0;exitX=0.5;exitY=0;exitDx=0;exitDy=0;entryX=0.5;entryY=1;entryDx=0;entryDy=0;" edge="1" parent="1" source="EeDvjPlZpaN--JR_k7qJ-33" target="EeDvjPlZpaN--JR_k7qJ-34">
          <mxGeometry relative="1" as="geometry">
            <mxPoint x="660" y="400" as="sourcePoint" />
            <mxPoint x="580" y="400" as="targetPoint" />
          </mxGeometry>
        </mxCell>
        <mxCell id="EeDvjPlZpaN--JR_k7qJ-40" value="" style="endArrow=none;html=1;rounded=0;entryX=0;entryY=0.5;entryDx=0;entryDy=0;" edge="1" parent="1" target="EeDvjPlZpaN--JR_k7qJ-33">
          <mxGeometry width="50" height="50" relative="1" as="geometry">
            <mxPoint x="140" y="290" as="sourcePoint" />
            <mxPoint x="360" y="270" as="targetPoint" />
          </mxGeometry>
        </mxCell>
        <mxCell id="EeDvjPlZpaN--JR_k7qJ-41" value="&amp;lt;&amp;lt;initiate&amp;gt;&amp;gt;" style="text;html=1;align=center;verticalAlign=middle;resizable=0;points=[];autosize=1;strokeColor=none;fillColor=none;rotation=20;" vertex="1" parent="1">
          <mxGeometry x="250" y="320" width="90" height="30" as="geometry" />
        </mxCell>
        <mxCell id="EeDvjPlZpaN--JR_k7qJ-42" value="" style="endArrow=none;html=1;rounded=0;entryX=0;entryY=0.5;entryDx=0;entryDy=0;" edge="1" parent="1" target="EeDvjPlZpaN--JR_k7qJ-34">
          <mxGeometry width="50" height="50" relative="1" as="geometry">
            <mxPoint x="140" y="280" as="sourcePoint" />
            <mxPoint x="360" y="270" as="targetPoint" />
          </mxGeometry>
        </mxCell>
        <mxCell id="EeDvjPlZpaN--JR_k7qJ-44" value="&amp;lt;&amp;lt;include&amp;gt;&amp;gt;" style="text;html=1;align=center;verticalAlign=middle;whiteSpace=wrap;rounded=0;" vertex="1" parent="1">
          <mxGeometry x="600" y="250" width="70" height="30" as="geometry" />
        </mxCell>
        <mxCell id="EeDvjPlZpaN--JR_k7qJ-46" value="" style="endArrow=block;dashed=1;endFill=0;endSize=12;html=1;rounded=0;exitX=1;exitY=0.5;exitDx=0;exitDy=0;entryX=0.222;entryY=0.9;entryDx=0;entryDy=0;entryPerimeter=0;" edge="1" parent="1" source="EeDvjPlZpaN--JR_k7qJ-34" target="EeDvjPlZpaN--JR_k7qJ-15">
          <mxGeometry width="160" relative="1" as="geometry">
            <mxPoint x="480" y="330" as="sourcePoint" />
            <mxPoint x="695" y="-210" as="targetPoint" />
            <Array as="points">
              <mxPoint x="670" y="280" />
            </Array>
          </mxGeometry>
        </mxCell>
        <mxCell id="EeDvjPlZpaN--JR_k7qJ-47" value="Filter/Sort Products" style="ellipse;whiteSpace=wrap;html=1;fillColor=#dae8fc;strokeColor=#6c8ebf;" vertex="1" parent="1">
          <mxGeometry x="390" y="160" width="90" height="50" as="geometry" />
        </mxCell>
        <mxCell id="EeDvjPlZpaN--JR_k7qJ-48" value="&amp;lt;&amp;lt;extend&amp;gt;&amp;gt;" style="endArrow=open;endSize=12;dashed=1;html=1;rounded=0;exitX=0.5;exitY=1;exitDx=0;exitDy=0;entryX=0.5;entryY=0;entryDx=0;entryDy=0;" edge="1" parent="1" source="EeDvjPlZpaN--JR_k7qJ-47" target="EeDvjPlZpaN--JR_k7qJ-34">
          <mxGeometry width="160" relative="1" as="geometry">
            <mxPoint x="410" y="320" as="sourcePoint" />
            <mxPoint x="570" y="320" as="targetPoint" />
          </mxGeometry>
        </mxCell>
        <mxCell id="EeDvjPlZpaN--JR_k7qJ-49" value="" style="endArrow=none;html=1;rounded=0;entryX=0;entryY=0.5;entryDx=0;entryDy=0;" edge="1" parent="1" target="EeDvjPlZpaN--JR_k7qJ-47">
          <mxGeometry width="50" height="50" relative="1" as="geometry">
            <mxPoint x="140" y="265" as="sourcePoint" />
            <mxPoint x="390" y="360" as="targetPoint" />
          </mxGeometry>
        </mxCell>
        <mxCell id="EeDvjPlZpaN--JR_k7qJ-50" value="&amp;lt;&amp;lt;initiate&amp;gt;&amp;gt;" style="text;html=1;align=center;verticalAlign=middle;resizable=0;points=[];autosize=1;strokeColor=none;fillColor=none;rotation=-15;" vertex="1" parent="1">
          <mxGeometry x="240" y="190" width="90" height="30" as="geometry" />
        </mxCell>
      </root>
    </mxGraphModel>
  </diagram>
</mxfile>
